<svg width="100%" viewBox="0 0 680 230" role="img" xmlns="http://www.w3.org/2000/svg" font-family="-apple-system, Segoe UI, Roboto, sans-serif">
<style>.c-teal{fill:#2b8a9e}.c-purple{fill:#7b3294}.th{fill:#fff;font-weight:700;font-size:13px}.t{fill:#222;font-weight:600;font-size:14px}.ts{fill:#555;font-size:11px}</style>
<title>Policy core by wiki</title>
<desc>Six Wikipedia editions: circle size = core policy pages, purple bar = mean within-core degree. en largest (347) and densest (23.3).</desc>
<g class="c-teal">
<circle cx="95" cy="95" r="39"/><text class="th" x="95" y="95" text-anchor="middle" dominant-baseline="central">347</text>
<circle cx="195" cy="95" r="28"/><text class="th" x="195" y="95" text-anchor="middle" dominant-baseline="central">193</text>
<circle cx="295" cy="95" r="27"/><text class="th" x="295" y="95" text-anchor="middle" dominant-baseline="central">177</text>
<circle cx="395" cy="95" r="25"/><text class="th" x="395" y="95" text-anchor="middle" dominant-baseline="central">149</text>
<circle cx="495" cy="95" r="25"/><text class="th" x="495" y="95" text-anchor="middle" dominant-baseline="central">148</text>
<circle cx="595" cy="95" r="23"/><text class="th" x="595" y="95" text-anchor="middle" dominant-baseline="central">129</text>
</g>
<text class="t" x="95" y="152" text-anchor="middle">en</text>
<text class="t" x="195" y="152" text-anchor="middle">ja</text>
<text class="t" x="295" y="152" text-anchor="middle">fr</text>
<text class="t" x="395" y="152" text-anchor="middle">de</text>
<text class="t" x="495" y="152" text-anchor="middle">es</text>
<text class="t" x="595" y="152" text-anchor="middle">nl</text>
<rect class="c-purple" x="45" y="164" width="100" height="8" rx="2"/>
<text class="ts" x="95" y="186" text-anchor="middle">23.3</text>
<rect class="c-purple" x="145" y="164" width="60" height="8" rx="2"/>
<text class="ts" x="195" y="186" text-anchor="middle">14.1</text>
<rect class="c-purple" x="245" y="164" width="55" height="8" rx="2"/>
<text class="ts" x="295" y="186" text-anchor="middle">12.8</text>
<rect class="c-purple" x="345" y="164" width="52" height="8" rx="2"/>
<text class="ts" x="395" y="186" text-anchor="middle">12.1</text>
<rect class="c-purple" x="445" y="164" width="46" height="8" rx="2"/>
<text class="ts" x="495" y="186" text-anchor="middle">10.8</text>
<rect class="c-purple" x="545" y="164" width="33" height="8" rx="2"/>
<text class="ts" x="595" y="186" text-anchor="middle">7.6</text>
<circle class="c-teal" cx="48" cy="212" r="6"/><text class="ts" x="60" y="212" text-anchor="start" dominant-baseline="central">core pages</text>
<rect class="c-purple" x="170" y="207" width="18" height="9" rx="2"/><text class="ts" x="194" y="212" text-anchor="start" dominant-baseline="central">mean within-core degree</text>
<text class="ts" x="450" y="212" text-anchor="start" dominant-baseline="central">+ 1,489 interwiki links across cores</text>
</svg>